<svg xmlns="http://www.w3.org/2000/svg" xmlns:xlink="http://www.w3.org/1999/xlink" width="194" height="233.333" viewBox="0 0 194 233.333">
  <defs>
    <filter id="Path_1" x="11.385" y="0" width="170.114" height="198.054" filterUnits="userSpaceOnUse">
      <feOffset dy="3" input="SourceAlpha"/>
      <feGaussianBlur stdDeviation="8" result="blur"/>
      <feFlood flood-opacity="0.8"/>
      <feComposite operator="in" in2="blur"/>
      <feComposite in="SourceGraphic"/>
    </filter>
    <filter id="Path_2" x="28.055" y="153.727" width="165.945" height="79.606" filterUnits="userSpaceOnUse">
      <feOffset dy="3" input="SourceAlpha"/>
      <feGaussianBlur stdDeviation="8" result="blur-2"/>
      <feFlood flood-opacity="0.8"/>
      <feComposite operator="in" in2="blur-2"/>
      <feComposite in="SourceGraphic"/>
    </filter>
    <filter id="Path_3" x="0" y="153.651" width="76.649" height="74.021" filterUnits="userSpaceOnUse">
      <feOffset dy="3" input="SourceAlpha"/>
      <feGaussianBlur stdDeviation="8" result="blur-3"/>
      <feFlood flood-opacity="0.8"/>
      <feComposite operator="in" in2="blur-3"/>
      <feComposite in="SourceGraphic"/>
    </filter>
  </defs>
  <g id="nearby_logo" data-name="nearby logo" transform="translate(-47.107 2.654)">
    <g id="Group_1" data-name="Group 1" transform="translate(71.107 18.346)">
      <g transform="matrix(1, 0, 0, 1, -24, -21)" filter="url(#Path_1)">
        <path id="Path_1-2" data-name="Path 1" d="M165.16,18.365c20.371.735,35.691,9.789,45.521,27.8a7.546,7.546,0,0,0,2.151,2.569,33.074,33.074,0,0,1,3.8,49.816,32.207,32.207,0,0,1-13.984,8.376A3.159,3.159,0,0,0,200.775,108c-6.056,8.214-12.692,15.99-18.5,24.387-6.022,8.708-11.052,17.882-13.21,28.385-.369,1.8-.621,3.615-.842,5.435-.162,1.343-.8,2.134-2.165,2.189a2.032,2.032,0,0,1-2.351-1.951c-1.623-13.186-7.8-24.349-15.479-34.849-5.763-7.876-12.2-15.22-18.13-22.957a2.981,2.981,0,0,0-1.713-1.036,32.887,32.887,0,0,1-24.256-33.43,32.339,32.339,0,0,1,13-24.729,5.923,5.923,0,0,0,1.771-2.02c8.152-16.18,21.214-25.688,39.054-28.682a29.953,29.953,0,0,1,3.422-.369C162.629,18.316,163.9,18.365,165.16,18.365ZM136.986,52c-12.471-.259-23.3,10.082-23.644,22.332a23.435,23.435,0,1,0,46.847,1.15C160.4,62.7,150.016,52.267,136.986,52Zm33.257,22.771c-.508,11.366,8.808,23.385,23.213,23.541a23.408,23.408,0,1,0-23.213-23.541ZM133.057,42.755c13.469-1.074,24.086,3.871,31.938,14.885,7.631-11.177,18.244-16.28,31.807-15.451C179.437,21.586,147.613,23.778,133.057,42.755Zm55.976,65.4A33,33,0,0,1,173.6,102c-.722-.532-1.084-.549-1.6.224-1.077,1.626-2.3,3.159-3.36,4.792-1.1,1.692-2.092,3.46-3.232,5.362a67.775,67.775,0,0,0-7.382-10.893,31.955,31.955,0,0,1-14.526,6.767c-1.644.3-1.447.632-.594,1.671,4.879,5.949,9.768,11.891,14.218,18.175a125.053,125.053,0,0,1,8.608,14.018C171.852,129.581,180.5,119.081,189.032,108.153Z" transform="translate(-68.7 2.65)" fill="#080705"/>
      </g>
      <g transform="matrix(1, 0, 0, 1, -24, -21)" filter="url(#Path_2)">
        <path id="Path_2-2" data-name="Path 2" d="M176.091,479.641c.3-.67.9-1.012.421-1.785-1.571-2.538-.117-4.927,1.775-6.426,3.284-2.6,7.227-2.624,11.145-2.448a20.945,20.945,0,0,1,4.223.7c3.656.946,5.4,3.128,5.852,6.916.107.915-.3,2,.649,2.731.231.176.294.708.729.456.414-.238.425-.6.159-1.022-1.043-1.661-.877-3.536-.767-5.345.166-2.769,1.305-4.033,4.054-4.126,2.8-.1,5.638-.4,8.4.266,1.26.3,2.32-.345,3.494-.425,1.108-.076,2.458.825,3.083.238.608-.573.325-2.041.549-3.09a3.168,3.168,0,0,1,3.3-2.514c5.614-.055,11.256-.587,16.843.411,3.712.666,6.008,2.876,6.781,6.788a4.092,4.092,0,0,1,3.3-1.668c2.862-.052,5.725-.138,8.594.076,2.1.155,4.216-.11,6.329-.124,4.133-.024,5.3,1.164,5.293,5.321,0,2.186.186,4.444-2.379,5.569-.283.124-.387.673-.556,1.036-1.827,3.812-3.684,7.61-5.452,11.449a3.833,3.833,0,0,1-3.584,2.483,36.363,36.363,0,0,1-5.849-.086,3.258,3.258,0,0,1-2.448-1.409c-1.1-1.657-.994-6.736.328-8.242a.988.988,0,0,0,.148-1.419c-.874-1.423-1.271-3.156-2.634-4.313-.169.2-.3.28-.3.369-.318,6.446-4.257,8.7-10.161,9.05-4.64.273-9.305.142-13.959.076-2.424-.035-3.75-1.537-3.877-4.13-.059-1.2-.01-2.407-.01-3.6-1.519-.214-2.03.449-1.844,1.854a10.222,10.222,0,0,1,.007,1.9c-.131,2.514-1.474,3.922-4.005,3.988-3.159.079-6.322.024-9.481.017a4.852,4.852,0,0,1-3.453-1.657,4.51,4.51,0,0,1-3.36,1.661c-2.869-.041-5.738-.1-8.608-.1a10.349,10.349,0,0,0-2.023.266c-5.279,1.07-9.657-1.536-10.966-6.595-.825.328-.5,1.191-.825,1.744a9.609,9.609,0,0,1-5.566,4.316,15.941,15.941,0,0,1-10.455-.249,9.372,9.372,0,0,1-6.629-9.443,10.107,10.107,0,0,1,7.558-9.557,13.911,13.911,0,0,1,11.971,1.782,9.393,9.393,0,0,1,3.732,5.966C175.78,478.018,175.911,478.75,176.091,479.641Zm64.311-3.819c1.526-.836,2.835-1.637,2.945-3.467.155-2.555-1.464-4.509-4.288-4.886-5.027-.67-10.085-.214-15.126-.331-.276-.007-.715-.045-.735.266-.09,1.195-.1,2.4-.107,3.594,0,.822.68.573,1.139.677.67.148.456.711.459,1.122.021,2.009.079,4.019-.017,6.025-.048.981.787,2.555-1.333,2.569-.325,0-.259.577-.262.908-.01.746.041,1.5-.014,2.237-.069.874.211,1.2,1.143,1.191,4.247-.059,8.494,0,12.737-.093A9.659,9.659,0,0,0,241.6,484.6a4.523,4.523,0,0,0,.808-7.517A20.658,20.658,0,0,0,240.4,475.822Zm18.949,6.011c-.7-1.547-1.274-2.793-1.813-4.057a1.613,1.613,0,0,1-.066-.78c1.889-.456.787-1.951,1.019-2.952.214-.912-.183-1.343-1.2-1.312-2.123.066-4.254.055-6.377,0-.922-.021-1.126.342-1.184,1.208a5.607,5.607,0,0,0,1.347,3.833,65.323,65.323,0,0,1,4.219,7.872c.6,1.181.135,2.023-1.219,2.037-1.019.01-1.222.38-1.233,1.309-.024,2.652-.066,2.652,2.624,2.652a13.033,13.033,0,0,1,1.723.014,1.673,1.673,0,0,0,1.958-1.233,36.452,36.452,0,0,1,2.445-5.117c1.806-2.866,2.02-6.595,5.034-8.863.552-.414.287-2.227.028-3.3-.18-.749-1.2-.335-1.844-.373a22.387,22.387,0,0,0-2.928,0c-.566.041-1.543-.394-1.609.435-.093,1.174-.7,2.631.352,3.515.542.452.6.632.394,1.143C260.5,479.074,260,480.286,259.35,481.833Zm-66.158,3.881c1.236,0,2.22-.083,3.187.021,1.2.128,1.5-.394,1.378-1.464-.069-.625-.01-1.26-.017-1.892,0-.352-.041-.766-.5-.729-1.457.117-1.122-.922-1.143-1.723-.024-.918.01-1.837-.035-2.755-.124-2.476-1.057-3.656-3.473-4.233a22.11,22.11,0,0,0-9.385-.107,5.105,5.105,0,0,0-3.546,2.21c-.169.262-.5.532-.076.86a14.627,14.627,0,0,0,5.314-.021,3.112,3.112,0,0,1,3.7-.142,1.781,1.781,0,0,1,.725,2.13c-.259.742-.991.162-1.5.086a10.323,10.323,0,0,0-5.915.49,3.764,3.764,0,0,0-2.61,3.674,4.037,4.037,0,0,0,3.07,3.539,9.336,9.336,0,0,0,5.752-.2c.321-.114.8-.411.949-.3C190.423,486.273,192.008,485.414,193.192,485.714Zm-21.055-3.377c-1.326-.162-2.465-.262-3.594-.445a2.621,2.621,0,0,0-2.745.694,1.833,1.833,0,0,1-2.852-.39,2.033,2.033,0,0,1-.47-1.92c.245-.639,1.015-.342,1.554-.345q3.7-.041,7.4,0c.767.007,1.157-.131,1.012-1.06a6.716,6.716,0,0,0-4.333-5.721,10.876,10.876,0,0,0-7.575-.155,6.642,6.642,0,0,0-4.716,6.488,6.4,6.4,0,0,0,5.127,6.118,13.008,13.008,0,0,0,6.968.079A6.23,6.23,0,0,0,172.137,482.337Zm39.793-6.83c-.173-2.755-.173-2.755-2.624-2.755-.977,0-1.954-.017-2.928,0-2.907.055-2.586-.539-2.634,2.665-.014.811-.01,1.523,1.122,1.433.166-.014.5.214.5.342.062,1.257.1,2.521.086,3.777-.01.939-.836.528-1.305.7-.435.155-.38.525-.39.853-.017.632.055,1.271-.021,1.892-.135,1.108.363,1.353,1.381,1.319,2.123-.073,4.25-.021,6.374-.021,3.128,0,3.107,0,2.776-3.17-.066-.632-.235-.991-.908-.918-1.378.148-1.167-.6-.867-1.467a2.856,2.856,0,0,1,2.2-1.709c.963-.3,2.386.235,2.849-.646.452-.863.142-2.127.159-3.215.007-.345-.028-.691.007-1.032.076-.78-.307-.96-1.019-.956C214.668,472.607,213.239,473.626,211.93,475.508Z" transform="translate(-100.31 -288.85)" fill="#120d09"/>
      </g>
      <g transform="matrix(1, 0, 0, 1, -24, -21)" filter="url(#Path_3)">
        <path id="Path_3-2" data-name="Path 3" d="M79.6,463.516c1.892.2,4.226-.573,6.174,1.029.307.252.494.052.739-.069,3.553-1.73,7.254-1.084,10.893-.514,1.623.255,2.175,1.9,2.213,3.335.062,2.393.708,4.979-1.436,6.954-.387.356-.18.87-.183,1.305-.017,3.1.01,6.2-.014,9.3s-1.433,4.464-4.554,4.485c-1.264.01-2.527-.045-3.788.017a3.414,3.414,0,0,1-2.317-.414c-1.606-1.571-2.928-.521-4.6-.155a24.631,24.631,0,0,1-8.556.048,3.1,3.1,0,0,1-2.817-3.007c-.193-2.527-.829-5.124,1.226-7.3.556-.59.293-3.857-.228-4.537-1.381-1.8-1.688-6.816-.535-8.708.849-1.395,2.268-1.65,3.708-1.747C76.788,463.45,78.055,463.516,79.6,463.516Zm1.1,11.473a6.953,6.953,0,0,1,.556.535,62.368,62.368,0,0,1,4.568,6.66c1.63,3.135,3.926,4.219,7.323,3.739,1.095-.155,1.433-.352,1.416-1.471-.066-3.846-.038-7.7-.01-11.543,0-.528-.38-1.426.7-1.385.946.035.991-.5.963-1.2a21.983,21.983,0,0,1,0-2.237c.052-.8-.228-1.129-1.07-1.108-1.837.048-3.674.01-5.514.017-.328,0-.849-.1-.88.3-.093,1.2-.066,2.407-.073,3.612,0,.867.732.47,1.136.653a.706.706,0,0,1,.366.718v3.836a90.271,90.271,0,0,1-5.987-8.083,2.016,2.016,0,0,0-1.947-1.06c-2.123.073-4.25.014-6.374.031-.376,0-1.012-.176-1.067.266a31.18,31.18,0,0,0-.121,3.594c0,.822.687.566,1.143.673.666.155.452.718.456,1.129.021,2.241.017,4.478.007,6.719,0,.853.349,1.934-1.208,1.813-.442-.035-.4.473-.411.8-.01.8.045,1.612-.017,2.41-.069.894.249,1.208,1.16,1.177,1.778-.062,3.56-.01,5.341-.024.376,0,.994.176,1.05-.3a31.55,31.55,0,0,0,.1-3.432c.007-.953-.77-.615-1.257-.735-.387-.1-.352-.4-.352-.677C80.693,478.722,80.7,477.026,80.7,474.989Z" transform="translate(-47.11 -288.7)" fill="#120d09"/>
      </g>
      <path id="Path_4" data-name="Path 4" d="M154.519,115.8c13.031.269,23.41,10.7,23.2,23.479a23.435,23.435,0,1,1-46.847-1.15C131.216,125.883,142.047,115.542,154.519,115.8Zm13.946,23.472a14.161,14.161,0,1,0-14.174,14.087A14.262,14.262,0,0,0,168.464,139.273Z" transform="translate(-110.229 -82.149)" fill="#fdc90d"/>
      <path id="Path_5" data-name="Path 5" d="M295.663,137.632a23.31,23.31,0,1,1,23.213,23.544C304.474,161.017,295.155,149,295.663,137.632Zm37.4.09A14.054,14.054,0,0,0,319,123.6a14.14,14.14,0,1,0,.062,28.278A14.009,14.009,0,0,0,333.063,137.721Z" transform="translate(-218.116 -81.209)" fill="#fdc90d"/>
      <path id="Path_6" data-name="Path 6" d="M188,60.325c14.56-18.976,46.384-21.169,63.748-.566-13.562-.829-24.176,4.274-31.81,15.451C212.086,64.2,201.469,59.251,188,60.325Z" transform="translate(-147.64 -35.916)" fill="#ef8224"/>
      <path id="Path_7" data-name="Path 7" d="M261.438,265.807c-8.528,10.925-17.181,21.428-23.3,33.965a124.241,124.241,0,0,0-8.608-14.018c-4.454-6.284-9.343-12.226-14.218-18.175-.853-1.039-1.05-1.371.594-1.671a31.972,31.972,0,0,0,14.526-6.767,67.777,67.777,0,0,1,7.382,10.893c1.139-1.9,2.13-3.67,3.232-5.362,1.063-1.633,2.282-3.166,3.36-4.792.511-.773.874-.753,1.6-.224A32.97,32.97,0,0,0,261.438,265.807Z" transform="translate(-165.102 -176)" fill="#ef8224"/>
      <path id="Path_8" data-name="Path 8" d="M374.438,482.5a18.226,18.226,0,0,1,2,1.264,4.523,4.523,0,0,1-.808,7.517,9.69,9.69,0,0,1-4.661,1.036c-4.243.1-8.494.035-12.737.093-.932.014-1.212-.318-1.143-1.191.059-.742.007-1.492.014-2.237,0-.335-.062-.908.262-.908,2.12-.014,1.288-1.588,1.333-2.569.1-2,.041-4.016.017-6.025,0-.411.211-.974-.459-1.122-.459-.1-1.143.145-1.139-.677.007-1.2.021-2.4.107-3.594.024-.311.459-.273.735-.266,5.044.117,10.1-.338,15.127.331,2.824.376,4.444,2.327,4.288,4.886C377.272,480.861,375.964,481.665,374.438,482.5Zm-8.511,3.784c.021,1.091-.376,2.189,1.4,2.058,2.161-.159,3.183-.6,3.049-1.875-.186-1.737-1.557-1.612-2.828-1.733C366.192,484.6,365.612,485.038,365.927,486.281Zm.021-6.612c-.169,1.091-.1,1.913,1.409,1.709,1.2-.162,2.648-.017,2.659-1.7s-1.405-1.581-2.628-1.723C365.923,477.788,365.761,478.547,365.947,479.669Z" transform="translate(-258.341 -316.525)" fill="#fdc90d"/>
      <path id="Path_9" data-name="Path 9" d="M443.94,499.1c.646-1.547,1.153-2.759,1.657-3.974.214-.511.148-.687-.394-1.143-1.053-.884-.445-2.337-.352-3.515.066-.829,1.046-.394,1.609-.435a22.4,22.4,0,0,1,2.928,0c.642.038,1.664-.376,1.844.373.259,1.077.525,2.887-.028,3.3-3.011,2.268-3.228,6-5.034,8.863a36.453,36.453,0,0,0-2.445,5.117,1.673,1.673,0,0,1-1.958,1.233,13.023,13.023,0,0,0-1.723-.014c-2.69,0-2.648,0-2.624-2.652.01-.929.214-1.3,1.233-1.309,1.353-.014,1.82-.856,1.219-2.037a65.321,65.321,0,0,0-4.219-7.872,5.607,5.607,0,0,1-1.347-3.833c.059-.867.262-1.229,1.184-1.208,2.123.052,4.254.062,6.377,0,1.022-.031,1.419.4,1.2,1.312-.235,1,.867,2.5-1.019,2.952a1.614,1.614,0,0,0,.066.78C442.666,496.3,443.243,497.551,443.94,499.1Z" transform="translate(-308.895 -327.115)" fill="#ec8023"/>
      <path id="Path_10" data-name="Path 10" d="M244.238,502.421c-1.184-.3-2.766.556-4.14-.546-.145-.114-.625.183-.949.3a9.337,9.337,0,0,1-5.752.2,4.045,4.045,0,0,1-3.07-3.539,3.764,3.764,0,0,1,2.61-3.674,10.329,10.329,0,0,1,5.915-.49c.508.076,1.24.656,1.5-.086a1.777,1.777,0,0,0-.725-2.13,3.107,3.107,0,0,0-3.7.142,14.552,14.552,0,0,1-5.314.021c-.428-.328-.093-.6.076-.86a5.1,5.1,0,0,1,3.546-2.21,22.109,22.109,0,0,1,9.385.107c2.417.577,3.353,1.757,3.473,4.233.045.915.01,1.837.035,2.755.021.8-.314,1.84,1.143,1.723.466-.038.5.376.5.729.01.632-.048,1.271.017,1.892.117,1.067-.18,1.592-1.378,1.464A29.686,29.686,0,0,0,244.238,502.421ZM240.429,498c.321-1.471-.722-1.7-1.809-1.7-1.053,0-1.927.425-1.934,1.685a1.661,1.661,0,0,0,1.82,1.82C239.577,499.807,240.626,499.555,240.429,498Z" transform="translate(-175.351 -326.557)" fill="#ec8023"/>
      <path id="Path_11" data-name="Path 11" d="M178.68,499.029a6.216,6.216,0,0,1-4.23,3.335,13.009,13.009,0,0,1-6.968-.079,6.39,6.39,0,0,1-5.127-6.118,6.649,6.649,0,0,1,4.716-6.488,10.857,10.857,0,0,1,7.575.155,6.728,6.728,0,0,1,4.333,5.721c.148.925-.242,1.067-1.012,1.06q-3.7-.036-7.4,0c-.539.007-1.309-.294-1.554.345a2.033,2.033,0,0,0,.47,1.92c.818,1.015,2.041,1.243,2.852.39a2.623,2.623,0,0,1,2.745-.694C176.211,498.766,177.354,498.87,178.68,499.029Zm-7.9-4.081c.594-.407,1.8.556,1.851-.822a1.772,1.772,0,0,0-1.837-2.03c-1.181,0-1.713.849-1.754,1.93C168.984,495.5,170.207,494.557,170.78,494.948Z" transform="translate(-130.848 -326.542)" fill="#ec8023"/>
      <path id="Path_12" data-name="Path 12" d="M309.306,492.611c1.309-1.882,2.738-2.9,4.754-2.911.711,0,1.095.176,1.019.956-.035.342,0,.687-.007,1.032-.021,1.088.294,2.351-.159,3.215-.463.88-1.882.345-2.849.646a2.856,2.856,0,0,0-2.2,1.709c-.3.863-.511,1.616.867,1.467.677-.073.842.287.908.918.335,3.173.352,3.17-2.776,3.17-2.123,0-4.25-.048-6.374.021-1.022.035-1.516-.211-1.381-1.319.076-.622,0-1.264.021-1.892.01-.328-.045-.7.39-.853.47-.169,1.295.238,1.305-.7.017-1.26-.024-2.52-.086-3.777-.007-.128-.338-.356-.5-.342-1.133.09-1.136-.618-1.122-1.433.048-3.2-.273-2.61,2.634-2.666.977-.017,1.951,0,2.928,0C309.136,489.855,309.136,489.855,309.306,492.611Z" transform="translate(-221.681 -326.953)" fill="#ec8023"/>
      <path id="Path_13" data-name="Path 13" d="M87.417,481.837c0,2.037,0,3.732,0,5.431,0,.273-.035.58.352.677.49.121,1.267-.218,1.257.735a33.4,33.4,0,0,1-.1,3.432c-.055.473-.673.293-1.05.3-1.782.017-3.563-.038-5.341.024-.915.031-1.233-.28-1.16-1.177.062-.8.007-1.605.017-2.41,0-.331-.031-.839.411-.8,1.554.117,1.205-.96,1.208-1.813.01-2.241.014-4.478-.007-6.719,0-.411.211-.974-.456-1.129-.456-.107-1.146.152-1.143-.673a31.153,31.153,0,0,1,.121-3.594c.052-.442.691-.262,1.067-.266,2.123-.014,4.25.041,6.374-.031a2.019,2.019,0,0,1,1.947,1.06,89.6,89.6,0,0,0,5.987,8.083v-3.836a.706.706,0,0,0-.366-.718c-.4-.183-1.139.217-1.136-.653.007-1.205-.021-2.413.073-3.612.031-.4.556-.3.88-.3,1.837-.007,3.677.028,5.514-.017.842-.021,1.122.3,1.07,1.108a21.979,21.979,0,0,0,0,2.237c.028.7-.017,1.233-.963,1.2-1.084-.038-.7.856-.7,1.385-.031,3.846-.059,7.7.01,11.543.021,1.119-.321,1.315-1.416,1.471-3.4.483-5.694-.6-7.323-3.739a62.189,62.189,0,0,0-4.568-6.66C87.907,482.279,87.807,482.21,87.417,481.837Z" transform="translate(-77.827 -316.552)" fill="#fdc90d"/>
      <path id="Path_14" data-name="Path 14" d="M186.067,156.73a14.161,14.161,0,1,1-28.309-.694,14.161,14.161,0,0,1,28.309.694Z" transform="translate(-127.832 -99.606)" fill="#080705"/>
      <path id="Path_15" data-name="Path 15" d="M350.385,155.248a14.143,14.143,0,0,1-28.285.066,14.205,14.205,0,0,1,14.225-14.184A14.05,14.05,0,0,1,350.385,155.248Z" transform="translate(-235.438 -98.736)" fill="#080705"/>
      <path id="Path_16" data-name="Path 16" d="M382.544,507.024c-.311-1.243.266-1.678,1.619-1.547,1.271.121,2.645,0,2.828,1.733.135,1.278-.887,1.713-3.049,1.875C382.168,509.213,382.565,508.115,382.544,507.024Z" transform="translate(-274.959 -337.268)" fill="#120d09"/>
      <path id="Path_17" data-name="Path 17" d="M382.639,487.558c-.186-1.122-.024-1.882,1.44-1.713,1.222.142,2.638.048,2.628,1.723s-1.454,1.54-2.659,1.7C382.542,489.471,382.47,488.649,382.639,487.558Z" transform="translate(-275.033 -324.414)" fill="#120d09"/>
      <path id="Path_18" data-name="Path 18" d="M252.493,511.675c.2,1.554-.853,1.806-1.923,1.809a1.661,1.661,0,0,1-1.82-1.82c0-1.26.877-1.682,1.934-1.685C251.771,509.976,252.814,510.2,252.493,511.675Z" transform="translate(-187.414 -340.231)" fill="#120d09"/>
      <path id="Path_19" data-name="Path 19" d="M183.456,500.675c-.573-.39-1.8.552-1.74-.925.041-1.077.573-1.93,1.754-1.93a1.772,1.772,0,0,1,1.837,2.03C185.259,501.231,184.054,500.268,183.456,500.675Z" transform="translate(-143.524 -332.27)" fill="#120d09"/>
    </g>
  </g>
</svg>
